<svg width="300" height="100" viewBox="0 0 300 100" fill="none" xmlns="http://www.w3.org/2000/svg">
  <!-- Deer head silhouette centered -->
  <g transform="translate(150, 50)">
    <!-- Main deer head shape -->
    <path d="M-15,-25 C-20,-25 -25,-20 -25,-15 C-25,-12 -23,-10 -20,-8 L-22,-5 C-23,-4 -23,-2 -22,-1 C-21,0 -19,0 -18,-1 L-15,-3 C-10,-1 -5,-1 0,-1 C5,-1 10,-1 15,-3 L18,-1 C19,0 21,0 22,-1 C23,-2 23,-4 22,-5 L20,-8 C23,-10 25,-12 25,-15 C25,-20 20,-25 15,-25 L0,-25 Z" fill="#4a5d23"/>
    
    <!-- Left antler -->
    <path d="M-18,-22 L-25,-35 M-18,-22 L-22,-30 M-20,-28 L-28,-38" stroke="#4a5d23" stroke-width="2.5" stroke-linecap="round"/>
    
    <!-- Right antler -->
    <path d="M18,-22 L25,-35 M18,-22 L22,-30 M20,-28 L28,-38" stroke="#4a5d23" stroke-width="2.5" stroke-linecap="round"/>
  </g>
  
  <!-- SeleApp Text centered below deer -->
  <text x="150" y="75" text-anchor="middle" font-family="Arial, sans-serif" font-size="28" font-weight="bold" fill="#4a5d23">SeleApp</text>
</svg>